<svg width="40" height="30" viewBox="0 0 40 30" fill="none" xmlns="http://www.w3.org/2000/svg">
<path d="M34.6085 0.000488281H4.82055C2.1615 0.000488281 0 2.16199 0 4.82104V25.1799C0 27.839 2.1615 30.0005 4.82055 30.0005H34.6003C37.2594 30.0005 39.4209 27.839 39.4209 25.1799V4.8292C39.429 2.17015 37.2675 0.000488281 34.6085 0.000488281ZM37.2268 25.1799C37.2268 26.6237 36.0522 27.7982 34.6085 27.7982H4.82055C3.37684 27.7982 2.20228 26.6237 2.20228 25.1799V4.8292C2.20228 3.38548 3.37684 2.21093 4.82055 2.21093H34.6003C36.044 2.21093 37.2186 3.38548 37.2186 4.8292V25.1799H37.2268Z" fill="white"/>
<path d="M24.8612 14.7477L34.5023 6.1017C34.951 5.69387 34.9917 5.00055 34.5839 4.54378C34.1761 4.09517 33.4828 4.05439 33.026 4.46222L19.7307 16.3953L17.1369 14.0789C17.1288 14.0707 17.1206 14.0625 17.1206 14.0544C17.0635 13.9973 17.0064 13.9484 16.9412 13.8994L6.38651 4.45406C5.92974 4.04623 5.23643 4.08701 4.8286 4.54378C4.42077 5.00055 4.46156 5.69387 4.91833 6.1017L14.6736 14.8211L4.95911 23.9157C4.51865 24.3317 4.49418 25.025 4.91017 25.4736C5.1304 25.702 5.42403 25.8244 5.71767 25.8244C5.98684 25.8244 6.25601 25.7265 6.46808 25.5307L16.3294 16.3056L19.0048 18.6955C19.2169 18.8831 19.4779 18.9728 19.7389 18.9728C19.9999 18.9728 20.2691 18.8749 20.473 18.6873L23.2218 16.224L33.026 25.5389C33.2381 25.7428 33.5154 25.8407 33.7846 25.8407C34.0782 25.8407 34.3637 25.7265 34.5839 25.4981C34.9999 25.0577 34.9836 24.3562 34.5431 23.9402L24.8612 14.7477Z" fill="white"/>
</svg>
