<svg width="32" height="32" viewBox="0 0 32 32" fill="none" xmlns="http://www.w3.org/2000/svg">
<g clip-path="url(#clip0_21_50)" filter="url(#filter0_d_21_50)">
<path d="M20.5 0H11.5C7.3585 0 4 3.3585 4 7.5V16.5C4 20.6415 7.3585 24 11.5 24H20.5C24.6415 24 28 20.6415 28 16.5V7.5C28 3.3585 24.6415 0 20.5 0ZM25.75 16.5C25.75 19.395 23.395 21.75 20.5 21.75H11.5C8.605 21.75 6.25 19.395 6.25 16.5V7.5C6.25 4.605 8.605 2.25 11.5 2.25H20.5C23.395 2.25 25.75 4.605 25.75 7.5V16.5Z" fill="#4FBFA5"/>
<path d="M16 6C12.6865 6 10 8.6865 10 12C10 15.3135 12.6865 18 16 18C19.3135 18 22 15.3135 22 12C22 8.6865 19.3135 6 16 6ZM16 15.75C13.933 15.75 12.25 14.067 12.25 12C12.25 9.9315 13.933 8.25 16 8.25C18.067 8.25 19.75 9.9315 19.75 12C19.75 14.067 18.067 15.75 16 15.75Z" fill="#4FBFA5"/>
<path d="M22.4479 6.34997C22.8895 6.34997 23.2474 5.99203 23.2474 5.55048C23.2474 5.10892 22.8895 4.75098 22.4479 4.75098C22.0064 4.75098 21.6484 5.10892 21.6484 5.55048C21.6484 5.99203 22.0064 6.34997 22.4479 6.34997Z" fill="#4FBFA5"/>
</g>
<defs>
<filter id="filter0_d_21_50" x="0" y="0" width="32" height="32" filterUnits="userSpaceOnUse" color-interpolation-filters="sRGB">
<feFlood flood-opacity="0" result="BackgroundImageFix"/>
<feColorMatrix in="SourceAlpha" type="matrix" values="0 0 0 0 0 0 0 0 0 0 0 0 0 0 0 0 0 0 127 0" result="hardAlpha"/>
<feOffset dy="4"/>
<feGaussianBlur stdDeviation="2"/>
<feComposite in2="hardAlpha" operator="out"/>
<feColorMatrix type="matrix" values="0 0 0 0 0 0 0 0 0 0 0 0 0 0 0 0 0 0 0.25 0"/>
<feBlend mode="normal" in2="BackgroundImageFix" result="effect1_dropShadow_21_50"/>
<feBlend mode="normal" in="SourceGraphic" in2="effect1_dropShadow_21_50" result="shape"/>
</filter>
<clipPath id="clip0_21_50">
<rect width="24" height="24" fill="white" transform="translate(4)"/>
</clipPath>
</defs>
</svg>
